<svg xmlns="http://www.w3.org/2000/svg" width="50" height="50" viewBox="0 0 50 50"><defs><style>.a{fill:#0d1451;}.b{fill:#fff;}</style></defs><g transform="translate(-282.539 -205.471)"><rect class="a" width="50" height="50" rx="6.22" transform="translate(282.539 205.471)"/><path class="b" d="M312.1,224.6c0-1.859-1.606-3.169-4.268-3.169-2.789,0-4.436,1.1-4.436,2.535,0,5.07,14.957,1.69,14.957,11.492,0,5.873-3.887,8.451-9.422,8.788.169,1.184.338,2.409.549,3.634h-4.268l.55-3.675c-4.986-.423-9.042-2.874-9.042-8.24,0-.295.042-.844.042-.844h5.7c0,.084-.042.422-.042.633,0,2.2,1.647,3.549,4.774,3.549,3.887,0,5.029-1.394,5.029-2.873,0-5.2-14.873-1.563-14.873-11.83,0-4.732,3.633-7.31,8.408-7.859-.169-1.225-.338-2.451-.55-3.676h4.268c-.211,1.225-.38,2.409-.549,3.634,4.943.338,8.83,2.746,8.83,7.816v.465H312.1Z"/></g></svg>