<svg xmlns="http://www.w3.org/2000/svg" width="50" height="50" viewBox="0 0 50 50"><defs><style>.a{fill:#0d1451;stroke:#0d1451;stroke-miterlimit:10;}.b{fill:#fff;}.c{stroke:none;}.d{fill:none;}</style></defs><g transform="translate(-298.743 -137.731)"><g class="a" transform="translate(298.743 137.731)"><rect class="c" width="50" height="50" rx="6.22"/><rect class="d" x="0.5" y="0.5" width="49" height="49" rx="5.72"/></g><path class="b" d="M333.046,145.874a5.922,5.922,0,0,1,6.112,6.217c0,3.97-1.515,9.09-6.112,9.09H333c-4.6,0-6.112-5.12-6.112-9.09A5.922,5.922,0,0,1,333,145.874"/><path class="b" d="M333.09,177.319h9.389c1.7,0,2.748-.981,2.748-2.028v-6.543c0-4.972-6.739-6.8-6.739-6.8a7.31,7.31,0,0,1-5.4,2.159h-.068a7.309,7.309,0,0,1-5.4-2.159s-6.739,1.832-6.739,6.8v6.543c0,1.047,1.046,2.028,2.748,2.028h9.388"/><path class="b" d="M325.071,159.287c-.666.079-17.631.314-17.631.314s-.2-.235.117-.549,3.291-4.035,3.526-4.388.471-.509,1.45-.509,8.521-.2,11.851-.118l.021-1.685s-11.558-.078-12.969.2-2.664,2.233-4.31,4.467c0,0-2.938-.079-3.487-.079a.955.955,0,0,0-1.019.706,9.153,9.153,0,0,0-.352,1.1c-.045.294.057.563.548.744.512.189,1.646.47,1.646.627s-.94,1.058-1.215,1.489-.392.353-.392,1.881.04,9.991.04,10.461.235.744.627.744h5.446c.47,0,.979-.195.979-.509v-1.645h8.307s-.008-1.4-.009-2.7c0-.917,0-1.785.009-2.077.053-1.8,2.672-6.554,7.209-7.679,0,0,.549-.039.588-.353S325.737,159.209,325.071,159.287Zm-13.792,5.525c0,.235-.156.47-.666.47s-4.114-.2-4.506-.2-1.332-.548-1.332-1.1v-1.175a.662.662,0,0,1,.784-.627c.508.053,3.605.431,4.153.47s1.528.392,1.567.94A11.845,11.845,0,0,1,311.279,164.812Z"/></g></svg>