<svg xmlns="http://www.w3.org/2000/svg" width="50" height="50" viewBox="0 0 50 50"><defs><style>.a{fill:#fff;}.b{fill:#0d1451;}.c{fill:#141c3b;}</style></defs><g transform="translate(-71.811 -205.217)"><rect class="a" width="50" height="50" rx="6.22" transform="translate(71.811 205.217)"/><path class="b" d="M94.578,237.807l-.108.016a1.209,1.209,0,0,0,.912.206c.4-.052.777-.34.757-1.125-.022-.814-.733-1.413-1.092-1.868-.177-.224-.05-.66.123-1.045a1.355,1.355,0,0,1,.39-2.181l.767-13.857c-.423-.232-1.079-.623-1.079-.826,0-.3-.178-5-.178-5s-.06-.3.536-.417a7.631,7.631,0,0,1,1.114-.052c.97,0,2.161.052,2.161.052a18.51,18.51,0,0,0,.655,1.906c.182.363,15.153,6.082,22.275,8.786V211.437a6.22,6.22,0,0,0-6.22-6.22H78.031a6.22,6.22,0,0,0-6.22,6.22v14.524a32.708,32.708,0,0,1,6.63,3.178C88.6,229.6,94.578,227.659,94.578,237.807Z"/><path class="b" d="M75.194,229.705a23.285,23.285,0,0,0-3.383-1.654v2.568l2.4-.21S75.617,230.127,75.194,229.705Z"/><path class="b" d="M118.237,242.975s-.457-6.616-7.018-6.616-6.978,6.616-6.978,6.616H101.2l-.417-.3V232.016l.536-.34,16.616-.077s.834-.3.06-.952S99.834,218.02,99.834,218.02s-.536-.536-.834-.536a4.6,4.6,0,0,0-1.22.567L97.007,232a1.35,1.35,0,0,1-.771,2.39c0,.389.062.373.343.672a3.1,3.1,0,0,1,1.125,2.059c.12,1.149-.4,2.346-2.369,2.346a2.257,2.257,0,0,1-2.289-1.459c-.819.081-1.286.083-1.286.083s-.705-5.074-5.849-5.074-6.061,4.44-6.061,6.7c-1.363.265-4.98.774-8.039,1.188V249a6.22,6.22,0,0,0,6.22,6.22h37.56a6.22,6.22,0,0,0,6.22-6.22v-6.022Z"/><circle class="a" cx="4.732" cy="4.732" r="4.732" transform="translate(80.996 234.398)"/><circle class="c" cx="2.514" cy="2.514" r="2.514" transform="translate(83.215 236.616)"/><circle class="a" cx="5.452" cy="5.452" r="5.452" transform="translate(105.767 237.875)"/><circle class="c" cx="2.896" cy="2.896" r="2.896" transform="translate(108.322 240.431)"/></g></svg>