<svg xmlns="http://www.w3.org/2000/svg" width="50" height="50" viewBox="0 0 50 50"><defs><style>.a{fill:#0d1451;stroke:#141c3b;stroke-miterlimit:10;}.b{fill:#fff;}.c{fill:#141c3b;}.d{stroke:none;}.e{fill:none;}</style></defs><g transform="translate(-137.483 -133.811)"><g class="a" transform="translate(137.483 133.811)"><rect class="d" width="50" height="50" rx="6.22"/><rect class="e" x="0.5" y="0.5" width="49" height="49" rx="5.72"/></g><path class="b" d="M146.662,172.459a63.535,63.535,0,0,1-.388-7.13,33.52,33.52,0,0,1,1.636-8.832,31.951,31.951,0,0,0,1.579-8.435,18.529,18.529,0,0,0-1.494-7.241h24.777a18.182,18.182,0,0,1,1.545,7.241,31.587,31.587,0,0,1-1.56,8.295,33.957,33.957,0,0,0-1.654,8.972,64.3,64.3,0,0,0,.385,7.13Z"/><path class="c" d="M172.6,141.081a17.939,17.939,0,0,1,1.453,6.981,31.4,31.4,0,0,1-1.55,8.225,34.131,34.131,0,0,0-1.664,9.043,65.69,65.69,0,0,0,.354,6.869H146.9a63.936,63.936,0,0,1-.36-6.869,33.379,33.379,0,0,1,1.625-8.764,32.62,32.62,0,0,0,1.589-8.5,18.965,18.965,0,0,0-1.361-6.981H172.6m.331-.52H147.586a18.035,18.035,0,0,1,1.642,7.5c0,5.552-3.214,11.358-3.214,17.268a60.828,60.828,0,0,0,.419,7.389h25.349a60.828,60.828,0,0,1-.419-7.389c0-5.91,3.214-11.716,3.214-17.268a18.035,18.035,0,0,0-1.642-7.5Z"/><path class="b" d="M175.671,177.06h-24a1,1,0,0,1,0-2h22.717a32.709,32.709,0,0,1-.515-6.309,39.849,39.849,0,0,1,1.373-9.875,52.876,52.876,0,0,0,1.707-13.608,1,1,0,0,1,2,0,55.294,55.294,0,0,1-1.759,14.062,37.732,37.732,0,0,0-1.321,9.421,23.291,23.291,0,0,0,.737,6.963l.487,1.341Z"/><path class="c" d="M169.088,148.238h-14.2a1,1,0,0,1,0-2h14.2a1,1,0,0,1,0,2Z"/><path class="c" d="M167.947,154.406h-14.1a1,1,0,0,1,0-2h14.1a1,1,0,1,1,0,2Z"/><path class="c" d="M166.832,161.078H152.784a1,1,0,0,1,0-2h14.048a1,1,0,0,1,0,2Z"/><path class="c" d="M165.77,167.151h-14.1a1,1,0,0,1,0-2h14.1a1,1,0,1,1,0,2Z"/></g></svg>