<svg xmlns="http://www.w3.org/2000/svg" width="50" height="50" viewBox="0 0 50 50"><defs><style>.a{fill:#0d1451;}.b{fill:#fff;}.c{fill:#141c3b;}</style></defs><g transform="translate(-210.864 -205.799)"><rect class="a" width="50" height="50" rx="6.22" transform="translate(210.864 205.799)"/><path class="b" d="M235.789,240.495c-5.658-3.042-10.835-12.35-10.835-17.654a10.828,10.828,0,0,1,10.986-10.986h-.151a10.828,10.828,0,0,1,10.986,10.986c0,5.3-5.23,14.445-10.835,17.654Z"/><circle class="c" cx="4.286" cy="4.286" r="4.286" transform="translate(231.578 218.176)"/><path class="b" d="M253.139,249.147h-34.55a1,1,0,0,1-.912-1.41l6.138-13.638a1,1,0,0,1,.912-.59h2.2l1.134,2h-2.685l-5.237,11.638h31.472L246.5,235.509h-2.45l1.134-2h1.969a1,1,0,0,1,.916.6l5.986,13.638a1,1,0,0,1-.916,1.4Z"/></g></svg>