<svg xmlns="http://www.w3.org/2000/svg" width="50" height="50" viewBox="0 0 50 50"><defs><style>.a{fill:#fff;}.b{fill:#0d1451;}</style></defs><g transform="translate(-71.053 -133.251)"><rect class="a" width="50" height="50" rx="6.22" transform="translate(71.053 133.251)"/><path class="b" d="M118.365,164.542a.248.248,0,0,1-.1-.176c-.031-.251-.788-6.161-6.761-5.846a5.977,5.977,0,0,0-4.671,2.17c-1.47,1.912-1.541,4.764-1.116,6.795a.25.25,0,0,1-.219.3c-1.174.121-2.167.214-3,.214a3.936,3.936,0,0,1-2.653-.712c-.824-.7-1.2-1.926-1.353-4.375-.235-3.853,2.13-5.675,3.695-6.88a8.54,8.54,0,0,0,1.05-.891,7.525,7.525,0,0,0,1.038-2.492c.789-2.575,1.869-6.1,5.752-7.464,3.963-1.391,8.744-2.689,11.036-3.289V139.4a6.151,6.151,0,0,0-6.151-6.151H77.2a6.151,6.151,0,0,0-6.151,6.151v9.093c2.509-.052,6.688.027,8.792,1,2.721,1.256,5.615,4.623,6.9,7.219h.017a16.711,16.711,0,0,1,6.331.962c2.831,1.193,4.266,3.5,4.266,6.842,0,3.807,0,4.831-3.054,4.922a.26.26,0,0,1-.182-.071.251.251,0,0,1-.075-.179,6.48,6.48,0,0,0-12.933.156.25.25,0,0,1-.25.25H71.053V177.1a6.151,6.151,0,0,0,6.151,6.151h37.7a6.151,6.151,0,0,0,6.151-6.151V163.976l-2.486.6A.258.258,0,0,1,118.365,164.542ZM87.6,174.515a4.776,4.776,0,1,1,4.776-4.776A4.776,4.776,0,0,1,87.6,174.515Zm7-26.945a6.179,6.179,0,0,1-3.548,5.207,11.6,11.6,0,0,1,1.965,1.51,1,1,0,0,1-1.447,1.38,16.3,16.3,0,0,0-3.257-2.21,1,1,0,0,1,.222-1.834c2.332-.653,4.891-2.265,3.841-6.233a1,1,0,0,1,1.71-.925c2.352,2.617,4.473,2.865,7.326.854a1,1,0,0,1,1.506,1.184c-.538,1.372-1.027,3.67-.427,4.488a1,1,0,1,1-1.614,1.182,5.32,5.32,0,0,1-.505-4.006A5.938,5.938,0,0,1,94.592,147.57Zm17.235,22.207A4.776,4.776,0,1,1,116.6,165,4.776,4.776,0,0,1,111.827,169.777Z"/><path class="b" d="M73.2,150.966v6.067H82.5C80.674,150.92,76.9,150.966,73.2,150.966Z"/><path class="b" d="M109.145,148.736a9.553,9.553,0,0,0-1.863,4.184c-.334,1.433.574,1.194.574,1.194l7.595-2.245-1.816-5.589A15.705,15.705,0,0,0,109.145,148.736Z"/><path class="b" d="M117.266,151.439l3.787-1.3v-5.927l-5.6,1.5Z"/><path class="b" d="M87.6,167.2a2.541,2.541,0,1,0,2.54,2.541A2.541,2.541,0,0,0,87.6,167.2Z"/><path class="b" d="M111.827,162.461a2.541,2.541,0,1,0,2.54,2.54A2.54,2.54,0,0,0,111.827,162.461Z"/></g></svg>