<svg xmlns="http://www.w3.org/2000/svg" width="50" height="50" viewBox="0 0 50 50"><defs><style>.a{fill:#0d1451;}.b{fill:#fff;}</style></defs><g transform="translate(-139.02 -205.719)"><rect class="a" width="50" height="50" rx="6.22" transform="translate(139.02 205.719)"/><path class="b" d="M161.59,236.93v-2.451c0-4.182,6.042-5.408,6.042-9.886a3.452,3.452,0,0,0-3.8-3.761c-3.338,0-3.972,2.578-3.972,4.141,0,.465.043,1.352.043,1.352h-5.958a11.553,11.553,0,0,1-.127-1.563c0-4.352,3.887-8.746,9.972-8.746h.929c6.169,0,9.507,4.1,9.507,8.661,0,7.014-6.887,7.775-6.887,10.9v1.352Zm5.958,2.282v6.211h-6.211v-6.211Z"/></g></svg>